Coordinates																	
version=1																	
nRows=41																	
nColumns=18																	
inDegrees=yes																	
endheader																	
time	ground_thorax_rot_x	ground_thorax_rot_y	ground_thorax_rot_z	ground_thorax_tx	ground_thorax_ty	ground_thorax_tz	clav_prot	clav_elev	scapula_abduction	scapula_elevation	scapula_upward_rot	scapula_winging	plane_elv	shoulder_elv	axial_rot	elbow_flexion	pro_sup
33.5	0.30288109	-5.85455637	-9.73948773	-0.00423131	0.00403036	-0.00078352	-24.54928173	3.30494032	5.700211	-4.69605358	46.07181719	-4.06660021	62.0369093	60.75106504	-13.7988018	0	34.32
33.51	0.94628834	-6.07355601	-9.81379246	-0.00423131	0.00403036	-0.00078352	-24.83274933	4.11855847	6.15984907	-4.27280161	47.50888969	-4.49147752	61.77740773	60.9050787	-14.72516428	0	34.32
33.52	0.53071565	-6.16464505	-9.69856131	-0.00423131	0.00403036	-0.00078352	-24.88652402	4.17289223	6.17860217	-4.2515611	47.6649724	-4.52862879	61.80823907	61.21872326	-14.7314243	0	34.32
33.53	0.7519379	-6.22500702	-9.88408476	-0.00423131	0.00403036	-0.00078352	-25.18916091	4.49052238	6.13478208	-4.10699917	48.36548225	-4.71664314	62.12209127	61.68487064	-14.35312943	0	34.32
33.54	0.83416519	-6.19610371	-9.88069479	-0.00423131	0.00403036	-0.00078352	-25.26138477	4.70566208	6.24682562	-3.9902752	48.7260482	-4.81992399	61.87420836	62.05673934	-14.31092615	0	34.32
33.55	0.67197997	-6.1278324	-9.95352392	-0.00423131	0.00403036	-0.00078352	-25.3450658	4.59605974	6.30600341	-4.08995809	48.94072012	-4.82235294	61.67361961	62.39205768	-13.81103827	0	34.32
33.56	0.78058554	-6.13162397	-9.95101115	-0.00423131	0.00403036	-0.00078352	-25.39469462	4.86348244	6.50716297	-3.93985092	49.3762696	-4.94449425	61.34798049	62.79710093	-13.85785409	0	34.32
33.57	0.75016726	-6.20383178	-9.97146658	-0.00423131	0.00403036	-0.00078352	-25.53356143	5.06836924	6.54617363	-3.83642257	49.78654417	-5.05247142	61.31768247	63.08801013	-13.07175009	0	34.32
33.58	0.73385621	-6.48134696	-9.98637901	-0.00423131	0.00403036	-0.00078352	-25.41685094	5.21358095	7.06175307	-3.75846954	50.20304183	-5.12430144	60.53731797	63.79607302	-16.28190494	0	34.32
33.59	0.37053627	-6.38508862	-10.10765457	-0.00423131	0.00403036	-0.00078352	-25.62107911	4.82282934	6.75734509	-4.04129535	50.14723821	-5.03546288	60.58883259	64.44007041	-15.33720848	0	34.32
33.6	0.13109431	-6.37568514	-9.90578972	-0.00423131	0.00403036	-0.00078352	-25.6752202	4.83311845	6.79280725	-4.04915865	50.30850265	-5.05944917	60.56404475	64.70009237	-15.33667422	0	34.32
33.61	0.36814751	-6.50275491	-10.21849961	-0.00423131	0.00403036	-0.00078352	-25.8916253	5.00532766	7.15283315	-4.00853342	51.25614304	-5.21782946	60.45751449	65.26134555	-15.18440551	0	34.32
33.62	-0.02163771	-6.52837496	-10.07336994	-0.00423131	0.00403036	-0.00078352	-25.94455328	5.08047076	7.18226401	-3.97046738	51.42770226	-5.25852699	60.46337416	65.62346507	-15.18181751	0	34.32
33.63	0.60327878	-6.63806737	-10.13715272	-0.00423131	0.00403036	-0.00078352	-26.24530867	5.92829606	7.11313101	-3.44956975	52.25580381	-5.57499577	60.59819069	66.19406304	-14.14316164	0	34.32
33.64	0.66605435	-6.81274798	-10.13834994	-0.00423131	0.00403036	-0.00078352	-26.23376753	6.15391341	7.3844789	-3.31376183	52.62678559	-5.65916374	60.10792741	66.48428631	-14.88980512	0	34.32
33.65	0.23298586	-6.68858142	-10.25044556	-0.00423131	0.00403036	-0.00078352	-26.30401093	5.70890183	7.09517288	-3.60866645	52.28775919	-5.53123656	60.07809895	67.12516786	-13.72411734	0	34.32
33.66	0.00206525	-6.69698378	-10.09206774	-0.00423131	0.00403036	-0.00078352	-26.36257848	5.74542923	7.09901867	-3.595331	52.42804622	-5.55885386	60.02161728	67.32491027	-13.72428771	0	34.32
33.67	0.44737572	-6.78649861	-10.2754981	-0.00423131	0.00403036	-0.00078352	-26.71397518	6.25926246	7.24682304	-3.32156589	53.51200517	-5.8127108	59.85107444	67.47660097	-13.07288373	0	34.32
33.68	0.49537316	-6.93130375	-10.2843026	-0.00423131	0.00403036	-0.00078352	-26.87853564	6.60178015	7.22707233	-3.11665715	53.94673845	-5.94591396	59.88901427	67.94091379	-12.32984767	0	34.32
33.69	0.50148643	-7.04950369	-10.28629313	-0.00423131	0.00403036	-0.00078352	-27.08374065	6.9135635	7.15056837	-2.93552474	54.3902718	-6.07580107	59.95490637	68.46811874	-11.86484178	0	34.32
33.7	0.39154884	-7.06888803	-10.38130277	-0.00423131	0.00403036	-0.00078352	-27.32519118	6.97005621	6.99168046	-2.92844685	54.7290523	-6.14697293	59.87953839	68.92821621	-11.52142524	0	34.32
33.71	0.64743897	-7.38567754	-10.33156644	-0.00423131	0.00403036	-0.00078352	-27.26164689	7.37339571	7.50006091	-2.67087759	55.32494889	-6.26392125	59.33723097	69.27308825	-12.90217182	0	34.32
33.72	0.47081176	-7.4241918	-10.16615769	-0.00423131	0.00403036	-0.00078352	-27.31465878	7.37546313	7.48171917	-2.67694316	55.41563461	-6.27798968	59.27456189	69.46704672	-12.90278695	0	34.32
33.73	0.27529187	-7.16560828	-10.60532067	-0.00423131	0.00403036	-0.00078352	-27.68156059	6.76300549	7.22433599	-3.13807135	55.68396209	-6.21623396	58.97010617	70.07532987	-11.77528498	0	34.32
33.74	0.18172201	-7.11274148	-10.57015567	-0.00423131	0.00403036	-0.00078352	-27.89399736	6.76975588	7.10449578	-3.15996101	55.99071515	-6.26989941	58.90394487	70.33913361	-11.28433728	0	34.32
33.75	-0.08940737	-7.15166538	-10.40889932	-0.00423131	0.00403036	-0.00078352	-27.94714456	6.82281018	7.10222549	-3.13153683	56.11665526	-6.29780511	58.83917844	70.6076234	-11.28793277	0	34.32
33.76	0.24421093	-7.17125218	-10.55369932	-0.00423131	0.00403036	-0.00078352	-28.1582979	7.1526636	7.18949912	-2.94068259	56.76823693	-6.44363559	58.50744398	71.20741613	-11.48007471	0	34.32
33.77	0.03960886	-7.23797001	-10.38355146	-0.00423131	0.00403036	-0.00078352	-28.21134193	7.17221554	7.18429511	-2.93449739	56.8794551	-6.46241212	58.43252468	71.43648081	-11.48317532	0	34.32
33.78	0.07349349	-7.18123713	-10.6890678	-0.00423131	0.00403036	-0.00078352	-28.49088659	6.98307688	7.13578002	-3.09980651	57.34699156	-6.49204967	58.00133534	71.82496561	-10.92742654	0	34.32
33.79	-0.10891703	-7.29280876	-10.55995533	-0.00423131	0.00403036	-0.00078352	-28.53946139	7.02322276	7.10902057	-3.07786174	57.43007909	-6.51358309	57.91614634	72.00473473	-10.93276731	0	34.32
33.8	0.00497625	-7.29068019	-10.75917809	-0.00423131	0.00403036	-0.00078352	-28.79598494	7.09322086	7.09587493	-3.0625761	57.97383912	-6.6014119	57.5043891	72.36134328	-10.63609381	0	34.32
33.81	-0.29697625	-7.36426646	-10.57330513	-0.00423131	0.00403036	-0.00078352	-28.85549447	7.13943482	7.10089655	-3.03854804	58.11897013	-6.6287094	57.43978467	72.66496596	-10.64033041	0	34.32
33.82	-0.10346589	-7.25245024	-10.91427434	-0.00423131	0.00403036	-0.00078352	-29.19953532	7.15686915	7.06765571	-3.06693838	58.80495219	-6.72575907	56.9908325	73.51207732	-10.99593608	0	34.32
33.83	-0.09828625	-7.3896957	-10.81801079	-0.00423131	0.00403036	-0.00078352	-29.15032031	7.39507308	7.34153739	-2.90477349	59.09925684	-6.77928691	56.54242875	73.94793208	-11.21205006	0	34.32
33.84	-0.00491441	-7.55323066	-10.80321298	-0.00423131	0.00403036	-0.00078352	-29.23881183	7.54277632	7.59252952	-2.81862095	59.62523517	-6.84553447	56.29567398	74.05917802	-11.15896561	0	34.32
33.85	-0.21126423	-7.63126426	-10.64929563	-0.00423131	0.00403036	-0.00078352	-29.28859568	7.56588352	7.59283779	-2.80795104	59.73683367	-6.86341355	56.25951643	74.28313895	-11.16359252	0	34.32
33.86	0.1275289	-7.63551078	-10.82520321	-0.00423131	0.00403036	-0.00078352	-29.63340615	7.79919753	7.57393126	-2.68190263	60.50837446	-7.00555453	56.12327497	74.73504648	-11.49784454	0	34.32
33.87	-0.06492866	-7.69712932	-10.65348076	-0.00423131	0.00403036	-0.00078352	-29.68233431	7.81413365	7.56304724	-2.67607593	60.60246437	-7.02090669	56.04632454	74.9426873	-11.4998906	0	34.32
33.88	-0.154258	-7.629986	-10.91278198	-0.00423131	0.00403036	-0.00078352	-29.88562468	7.57509337	7.49286436	-2.85838093	60.86954533	-7.01752001	55.60761526	75.29207982	-10.91901418	0	34.32
33.89	-0.12150326	-7.78961699	-10.91581926	-0.00423131	0.00403036	-0.00078352	-29.94258123	7.68226647	7.62497365	-2.79099582	61.17689559	-7.05901849	55.37894102	75.54606548	-10.71155367	0	34.32
33.9	-0.32216716	-7.87470148	-10.74048082	-0.00423131	0.00403036	-0.00078352	-29.99667022	7.70350575	7.61654391	-2.78093008	61.28656551	-7.07701612	55.3132149	75.79478662	-10.71300563	0	34.32
